<mxfile host="app.diagrams.net" agent="Mozilla/5.0 (Windows NT 10.0; Win64; x64) AppleWebKit/537.36 (KHTML, like Gecko) Chrome/135.0.0.0 Safari/537.36" version="26.2.14">
  <diagram name="Page-1" id="H5uE1DFnD3gHjyiIyvg-">
    <mxGraphModel dx="1245" dy="531" grid="1" gridSize="10" guides="1" tooltips="1" connect="1" arrows="1" fold="1" page="1" pageScale="1" pageWidth="850" pageHeight="1100" background="none" math="0" shadow="0">
      <root>
        <mxCell id="0" />
        <mxCell id="1" parent="0" />
        <mxCell id="10hOBsEl72_Errzlf3PB-7" style="edgeStyle=orthogonalEdgeStyle;rounded=0;orthogonalLoop=1;jettySize=auto;html=1;entryX=0;entryY=0.5;entryDx=0;entryDy=0;" edge="1" parent="1" source="10hOBsEl72_Errzlf3PB-3" target="10hOBsEl72_Errzlf3PB-6">
          <mxGeometry relative="1" as="geometry" />
        </mxCell>
        <mxCell id="10hOBsEl72_Errzlf3PB-3" value="" style="shape=actor;whiteSpace=wrap;html=1;" vertex="1" parent="1">
          <mxGeometry x="20" y="193.75" width="40" height="60" as="geometry" />
        </mxCell>
        <mxCell id="10hOBsEl72_Errzlf3PB-13" value="" style="edgeStyle=orthogonalEdgeStyle;rounded=0;orthogonalLoop=1;jettySize=auto;html=1;" edge="1" parent="1" source="10hOBsEl72_Errzlf3PB-6" target="10hOBsEl72_Errzlf3PB-12">
          <mxGeometry relative="1" as="geometry" />
        </mxCell>
        <mxCell id="10hOBsEl72_Errzlf3PB-6" value="" style="shape=image;html=1;verticalAlign=top;verticalLabelPosition=bottom;labelBackgroundColor=#ffffff;imageAspect=0;aspect=fixed;image=https://cdn4.iconfinder.com/data/icons/ionicons/512/icon-social-github-128.png" vertex="1" parent="1">
          <mxGeometry x="160" y="180" width="87.5" height="87.5" as="geometry" />
        </mxCell>
        <mxCell id="10hOBsEl72_Errzlf3PB-8" value="1" style="ellipse;whiteSpace=wrap;html=1;aspect=fixed;rotation=0;gradientColor=#0057D2;strokeColor=none;gradientDirection=east;fillColor=#2395FF;rounded=0;pointerEvents=0;fontFamily=Helvetica;fontSize=16;fontColor=#FFFFFF;spacingTop=4;spacingBottom=4;spacingLeft=4;spacingRight=4;points=[];fontStyle=1" vertex="1" parent="1">
          <mxGeometry x="80" y="183.75" width="30" height="30" as="geometry" />
        </mxCell>
        <mxCell id="10hOBsEl72_Errzlf3PB-11" value="" style="shape=image;verticalLabelPosition=bottom;labelBackgroundColor=default;verticalAlign=top;aspect=fixed;imageAspect=0;image=https://upload.wikimedia.org/wikipedia/commons/thumb/3/39/Kubernetes_logo_without_workmark.svg/617px-Kubernetes_logo_without_workmark.svg.png;" vertex="1" parent="1">
          <mxGeometry x="518.1600000000001" y="513.47" width="92.83" height="90.27" as="geometry" />
        </mxCell>
        <mxCell id="10hOBsEl72_Errzlf3PB-21" style="edgeStyle=orthogonalEdgeStyle;rounded=0;orthogonalLoop=1;jettySize=auto;html=1;" edge="1" parent="1" source="10hOBsEl72_Errzlf3PB-12">
          <mxGeometry relative="1" as="geometry">
            <mxPoint x="640" y="223.75" as="targetPoint" />
          </mxGeometry>
        </mxCell>
        <mxCell id="10hOBsEl72_Errzlf3PB-26" style="edgeStyle=orthogonalEdgeStyle;rounded=0;orthogonalLoop=1;jettySize=auto;html=1;entryX=0.5;entryY=0;entryDx=0;entryDy=0;" edge="1" parent="1" source="10hOBsEl72_Errzlf3PB-12" target="10hOBsEl72_Errzlf3PB-25">
          <mxGeometry relative="1" as="geometry" />
        </mxCell>
        <mxCell id="10hOBsEl72_Errzlf3PB-12" value="" style="shape=image;verticalLabelPosition=bottom;labelBackgroundColor=default;verticalAlign=top;aspect=fixed;imageAspect=0;image=https://framerusercontent.com/images/DpFlQxGUeuFQ4c035JgoDfQos.jpg;" vertex="1" parent="1">
          <mxGeometry x="360" y="184.53" width="121.62" height="78.44" as="geometry" />
        </mxCell>
        <mxCell id="10hOBsEl72_Errzlf3PB-14" value="2" style="ellipse;whiteSpace=wrap;html=1;aspect=fixed;rotation=0;gradientColor=#0057D2;strokeColor=none;gradientDirection=east;fillColor=#2395FF;rounded=0;pointerEvents=0;fontFamily=Helvetica;fontSize=16;fontColor=#FFFFFF;spacingTop=4;spacingBottom=4;spacingLeft=4;spacingRight=4;points=[];fontStyle=1" vertex="1" parent="1">
          <mxGeometry x="280" y="183.75" width="30" height="30" as="geometry" />
        </mxCell>
        <mxCell id="10hOBsEl72_Errzlf3PB-15" value="3" style="ellipse;whiteSpace=wrap;html=1;aspect=fixed;rotation=0;gradientColor=#0057D2;strokeColor=none;gradientDirection=east;fillColor=#2395FF;rounded=0;pointerEvents=0;fontFamily=Helvetica;fontSize=16;fontColor=#FFFFFF;spacingTop=4;spacingBottom=4;spacingLeft=4;spacingRight=4;points=[];fontStyle=1" vertex="1" parent="1">
          <mxGeometry x="560" y="184.53" width="30" height="30" as="geometry" />
        </mxCell>
        <mxCell id="10hOBsEl72_Errzlf3PB-16" value="4" style="ellipse;whiteSpace=wrap;html=1;aspect=fixed;rotation=0;gradientColor=#0057D2;strokeColor=none;gradientDirection=east;fillColor=#2395FF;rounded=0;pointerEvents=0;fontFamily=Helvetica;fontSize=16;fontColor=#FFFFFF;spacingTop=4;spacingBottom=4;spacingLeft=4;spacingRight=4;points=[];fontStyle=1" vertex="1" parent="1">
          <mxGeometry x="370" y="283.75" width="30" height="30" as="geometry" />
        </mxCell>
        <mxCell id="10hOBsEl72_Errzlf3PB-17" value="5" style="ellipse;whiteSpace=wrap;html=1;aspect=fixed;rotation=0;gradientColor=#0057D2;strokeColor=none;gradientDirection=east;fillColor=#2395FF;rounded=0;pointerEvents=0;fontFamily=Helvetica;fontSize=16;fontColor=#FFFFFF;spacingTop=4;spacingBottom=4;spacingLeft=4;spacingRight=4;points=[];fontStyle=1" vertex="1" parent="1">
          <mxGeometry x="290" y="348.99" width="30" height="30" as="geometry" />
        </mxCell>
        <mxCell id="10hOBsEl72_Errzlf3PB-18" value="6" style="ellipse;whiteSpace=wrap;html=1;aspect=fixed;rotation=0;gradientColor=#0057D2;strokeColor=none;gradientDirection=east;fillColor=#2395FF;rounded=0;pointerEvents=0;fontFamily=Helvetica;fontSize=16;fontColor=#FFFFFF;spacingTop=4;spacingBottom=4;spacingLeft=4;spacingRight=4;points=[];fontStyle=1" vertex="1" parent="1">
          <mxGeometry x="135" y="513.75" width="30" height="30" as="geometry" />
        </mxCell>
        <mxCell id="10hOBsEl72_Errzlf3PB-20" value="" style="image;sketch=0;aspect=fixed;html=1;points=[];align=center;fontSize=12;image=img/lib/mscae/Docker.svg;" vertex="1" parent="1">
          <mxGeometry x="640" y="193.75" width="85.37" height="70" as="geometry" />
        </mxCell>
        <mxCell id="10hOBsEl72_Errzlf3PB-23" value="Code Checkin" style="text;html=1;align=center;verticalAlign=middle;whiteSpace=wrap;rounded=0;" vertex="1" parent="1">
          <mxGeometry x="75" y="232.97" width="60" height="30" as="geometry" />
        </mxCell>
        <mxCell id="10hOBsEl72_Errzlf3PB-24" value="Trigger Image Build" style="text;html=1;align=center;verticalAlign=middle;whiteSpace=wrap;rounded=0;" vertex="1" parent="1">
          <mxGeometry x="260" y="237.5" width="70" height="30" as="geometry" />
        </mxCell>
        <mxCell id="10hOBsEl72_Errzlf3PB-30" style="edgeStyle=orthogonalEdgeStyle;rounded=0;orthogonalLoop=1;jettySize=auto;html=1;" edge="1" parent="1" source="10hOBsEl72_Errzlf3PB-25" target="10hOBsEl72_Errzlf3PB-28">
          <mxGeometry relative="1" as="geometry" />
        </mxCell>
        <mxCell id="10hOBsEl72_Errzlf3PB-25" value="" style="shape=image;verticalLabelPosition=bottom;labelBackgroundColor=default;verticalAlign=top;aspect=fixed;imageAspect=0;image=https://framerusercontent.com/images/DpFlQxGUeuFQ4c035JgoDfQos.jpg;" vertex="1" parent="1">
          <mxGeometry x="360" y="348.99" width="122.35" height="78.91" as="geometry" />
        </mxCell>
        <mxCell id="10hOBsEl72_Errzlf3PB-27" value="Tag &amp;amp; Push Image" style="text;html=1;align=center;verticalAlign=middle;whiteSpace=wrap;rounded=0;" vertex="1" parent="1">
          <mxGeometry x="520" y="233.75" width="60" height="30" as="geometry" />
        </mxCell>
        <mxCell id="10hOBsEl72_Errzlf3PB-28" value="" style="shape=image;html=1;verticalAlign=top;verticalLabelPosition=bottom;labelBackgroundColor=#ffffff;imageAspect=0;aspect=fixed;image=https://cdn4.iconfinder.com/data/icons/ionicons/512/icon-social-github-128.png" vertex="1" parent="1">
          <mxGeometry x="160" y="344.69" width="87.5" height="87.5" as="geometry" />
        </mxCell>
        <mxCell id="10hOBsEl72_Errzlf3PB-31" value="Update Manifest File with new image tag" style="text;html=1;align=center;verticalAlign=middle;whiteSpace=wrap;rounded=0;" vertex="1" parent="1">
          <mxGeometry x="260" y="413.75" width="80" height="30" as="geometry" />
        </mxCell>
        <mxCell id="10hOBsEl72_Errzlf3PB-39" style="edgeStyle=orthogonalEdgeStyle;rounded=0;orthogonalLoop=1;jettySize=auto;html=1;entryX=0;entryY=0.5;entryDx=0;entryDy=0;" edge="1" parent="1" target="10hOBsEl72_Errzlf3PB-37">
          <mxGeometry relative="1" as="geometry">
            <mxPoint x="330" y="680" as="sourcePoint" />
          </mxGeometry>
        </mxCell>
        <mxCell id="10hOBsEl72_Errzlf3PB-35" value="" style="shape=image;verticalLabelPosition=bottom;labelBackgroundColor=default;verticalAlign=top;aspect=fixed;imageAspect=0;image=data:image/png,iVBORw0KGgoAAAANSUhEUgAAAT4AAACfCAMAAABX0UX9AAAA81BMVEX///8zbOYaGhoAAADC0vj///0YGBgQEBDl5eX//v+ioqLf398eHh4FBQV+fn6Pj4+WlpYzbeSiuO8lZOZLS0sNDQ3///oxa+eZsfDC0/b4+PjLy8szbeIpaOZkZGRBQUHAwMCurq7t7e1XV1eRq+7d4ffv8vdtbW0AXd/F1vQoKCjN1fV2dnY9PT2JiYmzs7OAl+fr7vuyw+5hguJFd+IRYOeKoOjX3Pl6mepyjuolYdsYYuxkgu2sve4zc+Ctvfdei+m3zvZhjOuBqeldj+MOW+swMDCCouXU1vtOe+EASuG3wPHb5fSTqvNqiO7R3fJSdukYMIJvAAAM0UlEQVR4nO2dDVvaPBfHWyFwV6euRAnFxrdBV4bbbCVQYCjzHtu4h9Pv/2mevLTlpQFhe3hR8tu8LtvUrv53cs7JSVI0TaFQKBQKhUKhUCgUCoVCoVAoFAqFQqFQKBQKxd8C6B/FnwIGpYfyuh/i5fJAWpjUlQH+EQ0b6hSMq+t+khcIuIamLnADkF/347woDK1iYtPUkdAP4vS6n+hFUQwIMkPtGAg2nXU/08uhQnQbm/oouOWrEDIPeafZpt0W6eMg8lsZ4PMAvz2pXGSApKOy6JkAzfvSwrop10+HfW/dT7jRgA6hAXeK9XEDzGnKAqfhfYHINqfZnjDAJzWKkwK0HBH9drr18RBSUjl0ElCuYSqcPVM7YYDmYN0Pu3GAUpub3YTjw1AiJ3JVGWGcsk1MnXfdUbnQba7wJDVAW5URhhh117R1ZLKoMRo54F2l4kNpDyZBcd1PvSGAqjkSMUbUQ92qZVWaWCafCbGlUhiqgBH0puTJ8KtlpdNpW96KSKBGcVoaIVMyxKXgusXksx6k5qfzMgKrbW0xTpOGVrl6yE4LrOnJDLzfZgPM+y1EtUHSTNksUeWY9VmFaeYnygjbivebcLcmlQ/dVKzI/G6m68fKCGArQ4jvQhYVpgzTcCcd48+Qb1vrWGnXZFEDTebKoSjfrKF8VjBLP5183cJRcAB1e0af/Joe5XbWUBjfT7W+k8PTs7Oj929PVvmbrYRgcnw7psi/1qh6Vkk+9ggv/j1FvotsKrWfzWb3U6mdf8SpFOef1f2ay8JykSxf4SDbGpMv/bM2Qz5XPotUPEpldkIyqfBklp16DfKBDoHTKqMkl66MyWfdyUovwvZITho6ih/2d2L2r8Kzr0Y+mrh0W1OMb5i0RFS+TbmUz38ASe5yJtQ7Ft01cn6vSD6au0BpSMUFkTEPjc9K56TeD0OeNkvU202JTnv6eW/v5DDqu69LvrzTbclyvh+Vyqj90aNKSdZ5yc3Uqbf9DFdvMuS+Kvmo07KwRBcYlEr/+pF4fqn0cC1JcjCcvvLgnBtf6nzy/OuSTxPrWZLKUMjX0AAhO0pcgkjTyUv7LePqmMqUfZc4/+rk00BVn+IBRfTNYV0yMsFIrLqaIt+HjNT4XqF8mmZcE6l8VixfwvTc2cV6Q/Tdy0TDa5RP0xpmMrCigui7NOYm1gvZVSBLVmIuhXzJhtcpH9BKvckcOpYPT8iH3DqrMc+Sb4/Jl8kmG16nfJTBpAGOWN8Y8PZR43sWZugn5HuTbHi18oF8YTwEY6l8qFcQquVnFfm2Tz6KdwOfkw/WykDMDs0skf6zjfJpWmdkbaREPsQWqM3m9IhxluUD3iPB2bA5Id/uGbtgV3arQ950ER5dfhQ3k/6rJ2e87UrauDIMaoBxD07KR2res3X5M1bgywr1drKCkQickO8wxS54K7vVAW+Klf2c4vd6L7mymDrmbRuw8iEuI0yGDux2ZiYrgtDuxpgtHzshl4/VbIbyaVciG/qcvPLdMW/ZiJq203RR0voQ7DqzkxXBEuXTvmflybio7shvsnqA1cKT8mHoazRmPC/fx9Q+5Tiskgr+X/LxgLST/ThxHQ/zO8dyr7gOimwUNyqf2yxy03tevk9XlIP3Qr+DK8Gw+a/ko+6Pm9mn8eveiNrYBji+CFZGiOXDbDWVOD3vjPj8ictC8mnvU0knJzu3bvLGj14kHysPAGOhtUDzp82Lyad9yE5aWmiRh4s83ipo5EL50ouvo1qafML9HQ8LiZeb5vgigPbTSlvpSpF22Y2RT7sQxhaf/SjMMVkaWz/AaTS8BbutYHnyRa5uTxx92kDHFzN3qJhkifKJQJsV9z6RhuIXzzLlE2keH7wV+TqG4zPJD79olilfNMj4HA7WNtPx/RVLlU873Req7U6ZDX3xLFc+Q7i/j3wZSOrg//XQy2HwB5t4lytf6P4y0hHwplF1F1/+vWT5Qve3uY7Pc+K5jMce6XsLJjDLlk87DWs6G+j4QF7rtOGv8MgAXgH3CovdYunyFYX5ZU8Xe65VAECf6Ag/ecMTjaD2uMgtli7fQbj2Mhp9bBS83kfGN51WFtmFv2z5zmPfl92gMt+Qxi2Eo/ItOHpbsnyXfLTBI+9+chXXGgFCMyqW3wrl85jZzV7SkmDJ8okyy4eJ4sv6adhuPdLJCLf7PfZu66xqtch9livfQbh+621qs9xf+j9s2ubP8ZOP0NRhr59rLHCjpcoXrly90LSj7Ga5Pwvqpk66Y1Gi0ePb9DEh/cLjnLW/Zcon6sv7p1rkAzfI/Tk3BJm4/W3E1IBVN9uYSYgxJN3cYI5uvEz5+ExyJsNN7nwzZniBlnZCVXwdIoTdWscZkcnzr1uELT9AGLt6vfLcWo0F5duXLk6Ry/dpzOEdbIT7c7quHfVYowAhW1XQG0tcNG3gB9glGDEFb55Z7DK/fNz9Z6UFTz4wm5Rv0t74yoPM8XrdX42Yeu8uPADgzobIhtawPYq73q8mJrQNk7uZm1Dnly+s2Ul+/clJIY7wdiMTa2Lqbc3uL98kpg1v4rcrAf+ekIr4fpAbfelSHjRKNoG625/1Kqb55RuG0QmEepPynSXmeaUqr47QsDotmp6QwInzOyfKVB570A46g9HrByUMIZxRRphfPmE9yd53EA7LxnWRTay9X6f7Kz9E39TaNOa69ag2Fb9suAHZCiHSCnxeQwBiAJK+IfCpPM0BLrA4V4y9Jua5T9iIIpOQTz6xJta4rCP7MwotEkQa5CA2TUh+s/0uI7o0XAjZ1l8M3VphIOSjzaBB+3dpylvtF5BPGNTO8Yfz+NQ52wmcSb3LTMh3OWuF1Trc34DQQPoUvYyleM3yOx3i6+qIKAA85n4TGjBY7uzaBb4Blc2dg0bNNeUGuIB8l2EvzaSOT99eXFwcvkulsuxw79Nk4nI0ZWJtd23uz0OmrcN02FGB9wPyLYIYN/2xN9yARq4vFETtbjU2ubue2OMxySIr6w+Ffm/eZMTeX15H3j/eS+R9h1NXlx4dr9z9hQo4fWyy3X3iHNCKnRpkr1GDsGeNXU2brAATrNt62/4V/bh3S5BkMLzQxoR3UfEuJpM6LSbS5pPh9PgkYrp8pe6vHAZOUKeSIFiIjAjQFr1HbTCq9wEt8nf0byVgObUJby12ZBh57drtJQvRi+3ruEqNrejNpt6cs9Pj8gmJsh+kv8zJyt3fD1IQJgiqbLspbufi/ztAc72+2w6tr4FLVUNEC/qVL/q3kHZhcs/iMHOBD24z4f/2xBb85L8qf5PGyUfaZzMig0mlvofd84pfG40vvosfndJBP4nW1a3yCzCsiy4ItIAtBsft+qgZFa0w1Wu4mLRuOp5YmmvQr599FnFcP7yy0P/7p9nbPeX6fD/dlQs0X6lndb33F7RhsxjqN7ingpi4bRdGalWhTTXYW01N3e367OHE+nAfQfYCv/CKhWaRXgmg3jZh5Papw/tGeHLn2vVKcSyZc+p0kMbehg3bQTlcHw6Meo/t0Aojzla+xK/KtrrU40OnQOOqiRAdjn0pNIzR1NnzuzRroTkOuWnwRX+0Czd0FnG2+S3sRp3o2PSHJypBi8mEaCpDbriEEcDx712sm6h3EyXKzhe2Y2Gb9WOfR4ShzV+IIUIreHxg9RQd2QgS2M2NDiqcAoS2rYtEmX7lg55dnTbq3QoAKNCsD6OSB+LJSOD5AR24Qd02MSR6kGbB1jD4MK2jt2nSZ/7kZ4DWMbbz1YcxNOg+0bgA3b7vhfpxRbzOtenqbPyBsdu0gJYHIM/acy3TNmnKCLb7pa9D8rk2Zn3V7ed41hLboferScdu2Gb1qoIXSesE0Eb43tDm2BW9HZTrLV4pQAR/uxsrIoNyod9i73DBbjCISqtp2t9JoBnzbXLbBgy/67KQizAmMOiMzfN6uRqkOQoOS9H0y7PdXJhvKzhAK6bpMI7FXEQDBr7+5Y2oUw5Y3kyHxbx0YGjO87vKtxDQyHUhq7/oNOa6TyWWIocBwslhVth6KqsOOwMq12OBjTCohLS74mERATglFyPT9XkHXuczbjxUwt8uDSY0YpDbO15WYEbodQnCvUf1qb1zUKzUTcisELYeHMALexrI/Rc4mqGsbzrx/CRgBWlEWN2ePBhCMOAtvM5027DYHFEsUbVJMBWwNawrKPlmU4X93HAfB/ACGjL0Xtfb8s/mmBvw0GvXcsNKlBe0TbP344/2RW8l5Sea9/WjzzQG2iOyy0DJNy9Ay7nIhOjOCL2gwafalHzzApwv7AOOYfxZHEw8Jd/8gA4bZRBdfaDdH+LdE113a9v8aU5/BWh0u9v+WWJ/wYI7sRRJ5nnpnEKhUCgUCoVCoVAoFAqFQqFQKBQKhUKhUCgUK+R/TTdCXeIr1gwAAAAASUVORK5CYII=;" vertex="1" parent="1">
          <mxGeometry x="130" y="636.02" width="178" height="89" as="geometry" />
        </mxCell>
        <mxCell id="10hOBsEl72_Errzlf3PB-36" style="edgeStyle=orthogonalEdgeStyle;rounded=0;orthogonalLoop=1;jettySize=auto;html=1;entryX=0.419;entryY=0.03;entryDx=0;entryDy=0;entryPerimeter=0;" edge="1" parent="1" source="10hOBsEl72_Errzlf3PB-28" target="10hOBsEl72_Errzlf3PB-35">
          <mxGeometry relative="1" as="geometry" />
        </mxCell>
        <mxCell id="10hOBsEl72_Errzlf3PB-37" value="" style="shape=image;verticalLabelPosition=bottom;labelBackgroundColor=default;verticalAlign=top;aspect=fixed;imageAspect=0;image=https://upload.wikimedia.org/wikipedia/commons/thumb/3/39/Kubernetes_logo_without_workmark.svg/617px-Kubernetes_logo_without_workmark.svg.png;" vertex="1" parent="1">
          <mxGeometry x="520" y="634.75" width="92.83" height="90.27" as="geometry" />
        </mxCell>
        <mxCell id="10hOBsEl72_Errzlf3PB-38" value="" style="shape=image;verticalLabelPosition=bottom;labelBackgroundColor=default;verticalAlign=top;aspect=fixed;imageAspect=0;image=https://upload.wikimedia.org/wikipedia/commons/thumb/3/39/Kubernetes_logo_without_workmark.svg/617px-Kubernetes_logo_without_workmark.svg.png;" vertex="1" parent="1">
          <mxGeometry x="518.1600000000001" y="753.75" width="92.83" height="90.27" as="geometry" />
        </mxCell>
        <mxCell id="10hOBsEl72_Errzlf3PB-40" value="" style="endArrow=classic;html=1;rounded=0;entryX=0;entryY=0.5;entryDx=0;entryDy=0;" edge="1" parent="1" target="10hOBsEl72_Errzlf3PB-11">
          <mxGeometry width="50" height="50" relative="1" as="geometry">
            <mxPoint x="307" y="653.75" as="sourcePoint" />
            <mxPoint x="517" y="573.75" as="targetPoint" />
            <Array as="points">
              <mxPoint x="307" y="559" />
            </Array>
          </mxGeometry>
        </mxCell>
        <mxCell id="10hOBsEl72_Errzlf3PB-45" value="" style="endArrow=classic;html=1;rounded=0;entryX=-0.016;entryY=0.583;entryDx=0;entryDy=0;entryPerimeter=0;exitX=1;exitY=0.75;exitDx=0;exitDy=0;" edge="1" parent="1" source="10hOBsEl72_Errzlf3PB-54" target="10hOBsEl72_Errzlf3PB-38">
          <mxGeometry width="50" height="50" relative="1" as="geometry">
            <mxPoint x="260" y="803.75" as="sourcePoint" />
            <mxPoint x="511" y="773.75" as="targetPoint" />
            <Array as="points">
              <mxPoint x="308" y="806.75" />
            </Array>
          </mxGeometry>
        </mxCell>
        <mxCell id="10hOBsEl72_Errzlf3PB-47" value="Sync" style="text;html=1;align=center;verticalAlign=middle;whiteSpace=wrap;rounded=0;" vertex="1" parent="1">
          <mxGeometry x="290" y="503.47" width="60" height="30" as="geometry" />
        </mxCell>
        <mxCell id="10hOBsEl72_Errzlf3PB-48" value="DEV Deploy" style="text;html=1;align=center;verticalAlign=middle;whiteSpace=wrap;rounded=0;rotation=0;" vertex="1" parent="1">
          <mxGeometry x="485" y="513.75" width="60" height="30" as="geometry" />
        </mxCell>
        <mxCell id="10hOBsEl72_Errzlf3PB-52" value="TEST Deploy" style="text;html=1;align=center;verticalAlign=middle;whiteSpace=wrap;rounded=0;rotation=0;" vertex="1" parent="1">
          <mxGeometry x="485" y="624.75" width="60" height="30" as="geometry" />
        </mxCell>
        <mxCell id="10hOBsEl72_Errzlf3PB-53" value="PROD Deploy" style="text;html=1;align=center;verticalAlign=middle;whiteSpace=wrap;rounded=0;rotation=0;" vertex="1" parent="1">
          <mxGeometry x="485" y="753.75" width="60" height="30" as="geometry" />
        </mxCell>
        <mxCell id="10hOBsEl72_Errzlf3PB-58" value="Approval" style="text;html=1;align=center;verticalAlign=middle;whiteSpace=wrap;rounded=0;" vertex="1" parent="1">
          <mxGeometry x="356.25" y="834.02" width="60" height="30" as="geometry" />
        </mxCell>
        <mxCell id="10hOBsEl72_Errzlf3PB-60" value="" style="endArrow=classic;html=1;rounded=0;entryX=0.5;entryY=0;entryDx=0;entryDy=0;exitX=1;exitY=0.75;exitDx=0;exitDy=0;" edge="1" parent="1" source="10hOBsEl72_Errzlf3PB-35" target="10hOBsEl72_Errzlf3PB-54">
          <mxGeometry width="50" height="50" relative="1" as="geometry">
            <mxPoint x="388" y="692.75" as="sourcePoint" />
            <mxPoint x="597" y="796.75" as="targetPoint" />
            <Array as="points" />
          </mxGeometry>
        </mxCell>
        <mxCell id="10hOBsEl72_Errzlf3PB-54" value="" style="shape=actor;whiteSpace=wrap;html=1;" vertex="1" parent="1">
          <mxGeometry x="370" y="773.75" width="32.5" height="50" as="geometry" />
        </mxCell>
        <mxCell id="10hOBsEl72_Errzlf3PB-65" value="7" style="ellipse;whiteSpace=wrap;html=1;aspect=fixed;rotation=0;gradientColor=#0057D2;strokeColor=none;gradientDirection=east;fillColor=#2395FF;rounded=0;pointerEvents=0;fontFamily=Helvetica;fontSize=16;fontColor=#FFFFFF;spacingTop=4;spacingBottom=4;spacingLeft=4;spacingRight=4;points=[];fontStyle=1" vertex="1" parent="1">
          <mxGeometry x="371" y="656" width="30" height="30" as="geometry" />
        </mxCell>
      </root>
    </mxGraphModel>
  </diagram>
</mxfile>
